HIERARCHY
ROOT Hips
{
	OFFSET 0.000000 8.830580 0.000000
	CHANNELS 6 Xposition Yposition Zposition Zrotation Yrotation Xrotation 
	JOINT Spine
	{
		OFFSET 0.000000 0.010000 0.000000
		CHANNELS 3 Zrotation Yrotation Xrotation
		JOINT Spine1
		{
			OFFSET 0.000000 2.459130 0.000000
			CHANNELS 3 Zrotation Yrotation Xrotation
			JOINT Neck
			{
				OFFSET 0.000000 2.484630 0.000000
				CHANNELS 3 Zrotation Yrotation Xrotation
				JOINT Head_virtual
				{
					OFFSET 0.000000 0.000000 0.000000
					CHANNELS 3 Zrotation Yrotation Xrotation
					JOINT Head
					{
						OFFSET 0.000000 0.927525 0.000000
						CHANNELS 3 Zrotation Yrotation Xrotation
						End Site
						{
							OFFSET 0.000000 0.000000 0.000000
						}
					}
				}
				JOINT LeftUpArm_virtual
				{
					OFFSET 0.000000 0.000000 0.000000
					CHANNELS 3 Zrotation Yrotation Xrotation
					JOINT LeftUpArm
					{
						OFFSET 1.248820 0.000000 0.000000
						CHANNELS 3 Zrotation Yrotation Xrotation
						JOINT LeftForeArm
						{
							OFFSET 2.597580 0.000000 0.000000
							CHANNELS 3 Zrotation Yrotation Xrotation
							JOINT LeftHand
							{
								OFFSET 2.455420 0.000000 0.000000
								CHANNELS 3 Zrotation Yrotation Xrotation
								End Site
								{
									OFFSET 0.000000 0.000000 0.000000
								}
							}
						}
					}
				}
				JOINT RightUpArm_virtual
				{
					OFFSET -0.000000 -0.000000 -0.000000
					CHANNELS 3 Zrotation Yrotation Xrotation
					JOINT RightUpArm
					{
						OFFSET -1.248820 -0.000000 -0.000000
						CHANNELS 3 Zrotation Yrotation Xrotation
						JOINT RightForeArm
						{
							OFFSET -2.597580 -0.000000 -0.000000
							CHANNELS 3 Zrotation Yrotation Xrotation
							JOINT RightHand
							{
								OFFSET -2.455420 -0.000000 -0.000000
								CHANNELS 3 Zrotation Yrotation Xrotation
								End Site
								{
									OFFSET 0.000000 0.000000 0.000000
								}
							}
						}
					}
				}
			}
		}
	}
	JOINT LeftUpLeg
	{
		OFFSET 1.271939 0.000000 0.000000
		CHANNELS 3 Zrotation Yrotation Xrotation
		JOINT LeftLowLeg
		{
			OFFSET 0.000000 -4.342910 0.000000
			CHANNELS 3 Zrotation Yrotation Xrotation
			JOINT LeftFoot
			{
				OFFSET 0.000000 -4.487670 0.000000
				CHANNELS 3 Zrotation Yrotation Xrotation
				JOINT LeftToeBase
				{
					OFFSET 0.000000 0.000000 1.515070
					CHANNELS 3 Zrotation Yrotation Xrotation
					End Site
					{
						OFFSET 0.000000 0.000000 0.000000
					}
				}
			}
		}
	}
	JOINT RightUpLeg
	{
		OFFSET -1.271939 0.000000 0.000000
		CHANNELS 3 Zrotation Yrotation Xrotation
		JOINT RightLowLeg
		{
			OFFSET 0.000000 -4.342910 0.000000
			CHANNELS 3 Zrotation Yrotation Xrotation
			JOINT RightFoot
			{
				OFFSET 0.000000 -4.487670 0.000000
				CHANNELS 3 Zrotation Yrotation Xrotation
				JOINT RightToeBase
				{
					OFFSET 0.000000 0.000000 1.515070
					CHANNELS 3 Zrotation Yrotation Xrotation
					End Site
					{
						OFFSET 0.000000 0.000000 0.000000
					}
				}
			}
		}
	}
}
MOTION
Frames: 8
Frame Time: 0.041667
-17.154611 9.254023 58.486115 -171.690484 41.381195 -175.712374 6.671133 -3.176563 -22.696413 -0.678444 2.302138 33.999684 0.000000 0.000000 0.000000 -7.813335 3.824563 -1.142541 4.986956 9.422588 -54.265044 -29.668400 -2.554760 -8.563900 -35.578400 2.574980 35.427299 0.000000 -30.094999 0.000000 9.707810 6.480320 -0.016757 29.161200 0.018051 -4.125170 40.288300 2.561580 23.253799 0.000000 25.294001 0.000000 -4.262870 -2.217140 -10.565100 8.848306 18.917722 11.918665 0.000000 0.000000 -0.823447 -6.168496 5.555168 7.512565 0.000000 0.000000 -11.085120 10.231549 17.122170 5.762088 0.000000 0.000000 5.523640 11.632800 -22.383828 9.971929 0.000000 0.000000 -10.790490 
-17.155123 9.252973 58.488592 -171.639064 41.500914 -175.671089 6.660273 -3.154462 -22.637800 -0.609063 2.344810 33.995046 0.000000 0.000000 0.000000 -7.820920 3.822281 -1.160276 4.976310 9.420726 -54.330424 -29.674601 -2.618460 -8.629880 -35.584400 2.581970 35.467701 0.000000 -30.022100 0.000000 9.636590 6.536970 0.132545 29.188200 -0.012013 -4.148930 40.209099 2.559540 23.403601 0.000000 25.473900 0.000000 -4.443780 -2.366660 -10.683500 8.860962 18.808868 11.949678 0.000000 0.000000 -0.863860 -6.186609 5.692073 7.476112 0.000000 0.000000 -11.104540 10.271800 17.349487 5.626370 0.000000 0.000000 5.775860 11.761422 -22.416920 9.829617 0.000000 0.000000 -10.791180 
-17.154446 9.252197 58.488191 -171.621891 41.539007 -175.661779 6.656790 -3.164609 -22.619801 -0.594484 2.343526 34.008226 0.000000 0.000000 0.000000 -7.963908 3.947863 -1.179706 5.011863 9.399316 -54.365918 -29.700100 -2.629320 -8.616070 -35.536301 2.572140 35.445301 0.000000 -30.070801 0.000000 9.598580 6.585490 0.208943 29.165300 -0.020050 -4.158190 40.229599 2.574730 23.410601 0.000000 25.490400 0.000000 -4.457870 -2.303510 -10.682800 8.861826 18.689552 11.989359 0.000000 0.000000 -0.908088 -6.255552 5.760512 7.453009 0.000000 0.000000 -11.128870 10.294517 17.514297 5.488525 0.000000 0.000000 6.083680 11.908683 -22.453743 9.656358 0.000000 0.000000 -10.822900 
-17.153454 9.251606 58.489697 -171.626020 41.504194 -175.692612 6.605229 -3.241123 -22.555461 -0.555809 2.333027 34.011741 0.000000 0.000000 0.000000 -7.825913 3.828700 -1.187066 4.897932 9.449506 -54.426947 -29.747700 -2.706630 -8.619540 -35.439800 2.591830 35.460800 0.000000 -30.073799 0.000000 9.743190 6.471280 0.143557 29.209101 -0.048402 -4.165850 40.173302 2.595900 23.436501 0.000000 25.575500 0.000000 -4.485910 -2.255770 -10.584500 8.822060 18.321018 12.008696 0.000000 0.000000 -0.948299 -6.325415 5.989441 7.420232 0.000000 0.000000 -11.114520 10.403605 18.162395 5.353152 0.000000 0.000000 6.482350 12.238461 -22.962897 9.288592 0.000000 0.000000 -10.797990 
-17.149609 9.251502 58.490956 -171.538775 41.514152 -175.620535 6.580195 -3.386549 -22.590122 -0.445778 2.287140 34.129030 0.000000 0.000000 0.000000 -7.920233 3.881993 -1.302437 4.836222 9.408518 -54.447687 -29.749201 -2.679670 -8.733680 -35.464699 2.608040 35.507198 0.000000 -30.052200 0.000000 9.733860 6.470550 0.016479 29.096201 0.003225 -4.164700 40.250599 2.623260 23.386700 0.000000 25.663900 0.000000 -4.514730 -2.275610 -10.771400 8.884921 18.103264 12.057783 0.000000 0.000000 -1.051410 -6.405693 6.094588 7.406856 0.000000 0.000000 -11.090360 10.389184 17.566287 5.219271 0.000000 0.000000 6.648930 12.123606 -22.400371 9.454540 0.000000 0.000000 -10.898560 
-17.145593 9.251924 58.497924 -171.410942 41.520700 -175.477294 6.680388 -3.322629 -22.633452 -0.766349 2.154960 34.266501 0.000000 0.000000 0.000000 -7.878404 3.990491 -1.499533 4.795112 9.553824 -54.460532 -29.566099 -2.618490 -8.906350 -35.384102 2.612940 35.515800 0.000000 -30.079800 0.000000 9.752390 6.435740 -0.671930 29.284901 0.160612 -4.178830 40.273800 2.657720 23.360500 0.000000 25.739599 0.000000 -4.499970 -2.249000 -10.763400 8.972419 17.851800 12.006044 0.000000 0.000000 -1.094360 -6.528156 6.224111 7.357316 0.000000 0.000000 -11.051520 10.517629 17.728315 5.005069 0.000000 0.000000 6.917200 12.141089 -22.510164 9.463694 0.000000 0.000000 -10.981010 
-17.138318 9.251016 58.499723 -171.385515 41.415392 -175.462259 6.558864 -3.516263 -22.586662 -0.573607 2.165573 34.275385 0.000000 0.000000 0.000000 -7.808522 3.864973 -1.440510 4.722451 9.532446 -54.588646 -29.600901 -2.621540 -8.665360 -35.360901 2.394520 35.527599 0.000000 -29.994301 0.000000 9.622760 6.488950 0.330693 29.231100 -0.013991 -4.190910 40.322899 2.742650 23.384001 0.000000 25.802601 0.000000 -4.543790 -2.181920 -10.919700 9.008527 17.489840 12.052988 0.000000 0.000000 -1.212590 -6.648589 6.336396 7.343667 0.000000 0.000000 -10.929520 10.650468 18.171900 4.874258 0.000000 0.000000 7.267530 12.460592 -22.871890 9.170115 0.000000 0.000000 -11.035430 
-17.132906 9.252993 58.512739 -171.323397 41.094631 -175.375399 6.789394 -3.609396 -22.789743 -1.650577 1.581194 34.708912 0.000000 0.000000 0.000000 -8.054861 4.462963 -1.971959 4.844299 9.782957 -54.290061 -28.986300 -2.267740 -9.344070 -35.401501 2.571340 35.546902 0.000000 -30.023100 0.000000 9.606670 6.618330 0.842345 29.528900 0.855898 -4.077960 40.521599 2.637570 23.160500 0.000000 25.970400 0.000000 -4.416770 -2.451420 -10.937400 9.017441 16.707880 11.809066 0.000000 0.000000 -1.143290 -6.692289 6.713016 7.296916 0.000000 0.000000 -10.910080 10.734485 17.685252 4.568841 0.000000 0.000000 7.634670 12.208706 -22.683392 9.396632 0.000000 0.000000 -11.400140 
